<svg xmlns="http://www.w3.org/2000/svg" viewBox="0 0 94.18 20"><defs><style>.cls-1{fill:#48bb78;}.cls-2{fill:#e6e6e6;}</style></defs><g id="Layer_2" data-name="Layer 2"><g id="Layer_1-2" data-name="Layer 1"><path class="cls-1" d="M24.08,1.11c1.58,0,3.08,0,4.58,0,.13,0,.27.23.37.38s0,.2,0,.3v18h-5Z"/><path class="cls-2" d="M5,12.59l0,7.24-4.93,0L0,1.22l4.93,0L5,8.3l6.11,0,0-7.11,4.94,0,.11,18.63-4.91,0,0-7.23Z"/><path class="cls-2" d="M22.41,19.72l-4.57,0L17.75,6l4.57,0Z"/><path class="cls-2" d="M20,0a2.47,2.47,0,0,1,2.61,2.53A2.52,2.52,0,0,1,20,5.09a2.55,2.55,0,0,1-2.62-2.55A2.51,2.51,0,0,1,20,0Z"/><path class="cls-2" d="M50.86,19.82H45.29c-.87-3.62-1.74-7.21-2.6-10.81h-.16L40.05,19.78h-5.6c-1.66-6.16-3.32-12.32-5-18.64,1.67,0,3.25,0,4.82,0,.12,0,.29.28.33.46q1.34,5.57,2.63,11.14a2.09,2.09,0,0,0,.29.71c.06-.23.14-.46.2-.7.92-3.66,1.85-7.32,2.74-11,.12-.47.3-.61.76-.6,1,0,2,0,3.06,0,.49,0,.65.18.75.61q1.36,5.64,2.75,11.29c0,.13.09.25.19.53.45-1.84.86-3.52,1.28-5.19.54-2.23,1.1-4.46,1.62-6.7.1-.41.26-.55.69-.54,1.41,0,2.83,0,4.35,0C54.2,7.45,52.53,13.61,50.86,19.82Z"/><path class="cls-2" d="M94.18,19.82c-1.74,0-3.4,0-5.06,0-.17,0-.39-.23-.5-.41-.78-1.32-1.54-2.66-2.3-4L86,14.86c-.75.91-1.89,1.49-1.66,2.94a13.15,13.15,0,0,1,0,2H79.72V1.15h4.64v9.59l.26.19a2.4,2.4,0,0,1,.27-.53c1.18-1.32,2.39-2.63,3.58-4a1.17,1.17,0,0,1,1-.43C90.92,6,92.39,6,94,6l-.67.77c-1.23,1.37-2.45,2.75-3.7,4.1a.65.65,0,0,0-.08.92c1.45,2.47,2.86,5,4.29,7.43C94,19.4,94.06,19.58,94.18,19.82Z"/><path class="cls-2" d="M54.22,12.91a6.65,6.65,0,0,1,6.87-7,9.32,9.32,0,0,1,4.33.71,6.18,6.18,0,0,1,3.64,4.73A7.84,7.84,0,0,1,68.63,16a6.63,6.63,0,0,1-5.78,3.95,9.09,9.09,0,0,1-4.64-.59,6.32,6.32,0,0,1-4-5.77C54.2,13.35,54.22,13.13,54.22,12.91Zm10.31,0-.11,0c0-.2,0-.4,0-.6a2.81,2.81,0,0,0-2.36-2.7,2.59,2.59,0,0,0-2.91,1.94,4.2,4.2,0,0,0,.13,3,2.47,2.47,0,0,0,2.42,1.62,2.42,2.42,0,0,0,2.41-1.62A11.53,11.53,0,0,0,64.53,13Z"/><path class="cls-2" d="M74.7,7.93a4.44,4.44,0,0,1,4.47-1.88,1.78,1.78,0,0,1,.07.39c0,1.06,0,2.12,0,3.18,0,.39-.11.53-.51.53a14.22,14.22,0,0,0-1.73.07,2.27,2.27,0,0,0-2.22,2.31c-.08,1.81-.08,3.63-.1,5.45,0,.59,0,1.19,0,1.81H70.05c0-.23,0-.43,0-.62,0-4.16,0-8.32,0-12.48,0-.58.19-.7.72-.68q1.47,0,2.94,0c.51,0,.78.1.81.65A11,11,0,0,0,74.7,7.93Z"/></g></g></svg>